<svg width="468" height="487" viewBox="0 0 468 487" fill="none" xmlns="http://www.w3.org/2000/svg">
<g clip-path="url(#clip0)">
<path d="M277.452 480.504C267.043 471.71 260.721 457.818 262.379 444.294C264.037 430.77 274.306 418.337 287.627 415.465C300.948 412.594 316.133 420.543 320.179 433.554C322.406 408.47 324.971 382.334 338.309 360.973C350.387 341.63 371.305 327.79 393.975 325.314C416.646 322.838 440.515 332.19 454.654 350.081C468.793 367.972 472.255 393.983 462.352 414.523C455.057 429.655 441.618 440.916 427.536 450.078C382.035 479.433 327.461 491.37 273.857 483.694L277.452 480.504Z" fill="#D6E4FF"/>
<path d="M432.235 332.708C413.529 347.942 396.369 364.981 381.001 383.577C356.951 412.58 337.49 445.098 323.295 479.998C322.256 482.544 326.391 483.652 327.418 481.135C350.644 424.415 387.721 374.423 435.259 335.731C437.394 333.993 434.352 330.984 432.235 332.708Z" fill="white"/>
<path d="M238.584 484.936H-102.502V135.016C-102.502 60.5678 -41.9267 0 32.5306 0H103.552C178.009 0 238.584 60.5678 238.584 135.016V484.936Z" fill="#F0F5FF"/>
<path d="M167.564 484.936H-102.502V135.016C-102.577 106.489 -93.5422 78.6833 -76.7143 55.6468C-76.094 54.8014 -75.4752 53.967 -74.8371 53.1416C-66.6976 42.4675 -57.0113 33.067 -46.0979 25.2503C-45.4814 24.8018 -44.8625 24.3611 -44.2344 23.9204C-35.1024 17.6016 -25.2241 12.4362 -14.8242 8.54162C-14.2066 8.30757 -13.5778 8.07306 -12.9491 7.84813C-3.54334 4.49196 6.20677 2.19299 16.1212 0.99369C16.7358 0.909737 17.3669 0.844043 17.9979 0.778348C27.6596 -0.254566 37.4038 -0.254566 47.0654 0.778348C47.6947 0.844043 48.3257 0.909729 48.9476 0.994588C58.8595 2.19397 68.6071 4.49265 78.0104 7.84817C78.6394 8.0731 79.2682 8.3076 79.8875 8.5421C90.1591 12.3875 99.9212 17.4759 108.956 23.6936C109.584 24.1248 110.212 24.5655 110.831 25.0062C116.948 29.3723 122.694 34.2363 128.01 39.5487C132.273 43.8098 136.245 48.3519 139.901 53.1444C140.537 53.967 141.155 54.8015 141.775 55.6455C158.603 78.6822 167.638 106.489 167.564 135.016V484.936Z" fill="#ADC6FF"/>
<path d="M145.603 328.43C153.861 328.43 160.555 321.737 160.555 313.48C160.555 305.223 153.861 298.53 145.603 298.53C137.346 298.53 130.651 305.223 130.651 313.48C130.651 321.737 137.346 328.43 145.603 328.43Z" fill="#096DD9"/>
<path d="M210.643 474.455H199.186L193.735 430.271L210.644 430.272L210.643 474.455Z" fill="#FFB8B8"/>
<path d="M191.002 471.182H213.097V485.092H177.091C177.091 483.265 177.451 481.457 178.15 479.769C178.849 478.081 179.874 476.548 181.165 475.256C182.457 473.965 183.991 472.94 185.679 472.241C187.367 471.542 189.176 471.182 191.002 471.182Z" fill="#2F2E41"/>
<path d="M267.646 474.455H256.189L250.738 430.271L267.648 430.272L267.646 474.455Z" fill="#FFB8B8"/>
<path d="M248.005 471.182H270.1V485.092H234.094C234.094 483.265 234.454 481.457 235.153 479.769C235.852 478.081 236.877 476.548 238.168 475.256C239.46 473.965 240.994 472.94 242.682 472.241C244.369 471.542 246.178 471.182 248.005 471.182Z" fill="#2F2E41"/>
<path d="M153.171 316.442C152.346 315.227 151.798 313.847 151.565 312.398C151.332 310.95 151.42 309.467 151.822 308.056C152.224 306.645 152.93 305.339 153.891 304.23C154.853 303.121 156.045 302.236 157.386 301.638L196.331 194.311L215.494 204.768L171.027 307.334C171.883 309.651 171.858 312.203 170.959 314.503C170.059 316.804 168.346 318.695 166.145 319.818C163.944 320.941 161.407 321.217 159.016 320.595C156.625 319.972 154.545 318.495 153.171 316.442Z" fill="#FFB8B8"/>
<path d="M261.794 336.609C260.521 335.879 259.423 334.879 258.578 333.679C257.733 332.479 257.162 331.108 256.904 329.664C256.646 328.219 256.709 326.736 257.086 325.318C257.464 323.9 258.148 322.582 259.09 321.457L247.025 207.922L268.834 208.919L273.848 320.594C275.634 322.302 276.73 324.606 276.931 327.068C277.131 329.531 276.421 331.981 274.935 333.955C273.449 335.929 271.291 337.29 268.869 337.779C266.447 338.268 263.929 337.852 261.794 336.609Z" fill="#FFB8B8"/>
<path d="M227.002 174.431C239.678 174.431 249.954 164.156 249.954 151.482C249.954 138.807 239.678 128.533 227.002 128.533C214.326 128.533 204.05 138.807 204.05 151.482C204.05 164.156 214.326 174.431 227.002 174.431Z" fill="#FFB8B8"/>
<path d="M261.647 310.788H192.452L192.535 310.249C192.659 309.445 204.867 229.484 195.863 203.324C194.96 200.753 195.039 197.939 196.086 195.424C197.134 192.908 199.074 190.869 201.535 189.698H201.535C214.405 183.638 239.108 176.176 259.959 194.285C263.027 196.993 265.423 200.379 266.957 204.173C268.492 207.967 269.122 212.066 268.799 216.145L261.647 310.788Z" fill="#91D5FF"/>
<path d="M205.741 241.301L174.589 234.981L189.191 200.382C190.065 197.031 192.233 194.163 195.218 192.408C198.204 190.652 201.764 190.153 205.118 191.018C208.471 191.884 211.345 194.044 213.108 197.025C214.87 200.006 215.379 203.565 214.521 206.92L205.741 241.301Z" fill="#91D5FF"/>
<path d="M245.64 253.034L243.767 210.108C242.347 202.038 246.967 194.41 254.072 193.163C261.179 191.921 268.119 197.518 269.546 205.646L276.585 245.757L245.64 253.034Z" fill="#91D5FF"/>
<path d="M259.345 305.649C270.479 348.047 271.694 401.953 268.69 460.753L253.738 458.885L226.638 346.761L211.686 460.753L194.866 459.819C189.841 398.123 184.948 345.158 192.997 310.32L259.345 305.649Z" fill="#030852"/>
<path d="M242.125 169.218C237.844 173.778 229.892 171.33 229.334 165.1C229.29 164.616 229.293 164.129 229.343 163.646C229.631 160.886 231.226 158.381 230.844 155.467C230.757 154.742 230.487 154.051 230.059 153.459C226.647 148.891 218.637 155.502 215.417 151.367C213.443 148.831 215.764 144.838 214.249 142.004C212.249 138.263 206.325 140.108 202.611 138.06C198.478 135.78 198.725 129.44 201.445 125.584C204.763 120.88 210.581 118.371 216.326 118.009C222.07 117.647 227.776 119.2 233.139 121.29C239.233 123.664 245.276 126.946 249.026 132.304C253.586 138.819 254.025 147.579 251.744 155.197C250.357 159.832 245.622 165.493 242.125 169.218Z" fill="#2F2E41"/>
<path d="M439.891 487H-249.891C-250.185 486.998 -250.467 486.787 -250.675 486.412C-250.883 486.037 -251 485.529 -251 485C-251 484.471 -250.883 483.963 -250.675 483.588C-250.467 483.213 -250.185 483.002 -249.891 483H439.891C440.185 483.002 440.467 483.213 440.675 483.588C440.883 483.963 441 484.471 441 485C441 485.529 440.883 486.037 440.675 486.412C440.467 486.787 440.185 486.998 439.891 487Z" fill="#FAFAFA"/>
<path d="M93.2722 383.557H-28.2105C-29.8104 383.566 -31.3484 382.94 -32.4871 381.816C-33.6259 380.692 -34.2723 379.163 -34.2847 377.563V106.439C-34.2723 104.839 -33.6259 103.309 -32.4871 102.186C-31.3484 101.062 -29.8104 100.436 -28.2105 100.444H93.2722C94.8721 100.436 96.4102 101.062 97.5489 102.186C98.6876 103.309 99.334 104.839 99.3464 106.439V377.563C99.334 379.163 98.6876 380.692 97.5489 381.816C96.4102 382.94 94.8721 383.566 93.2722 383.557Z" fill="#D6E4FF"/>
<path d="M99.3464 188.172H-34.2847V190.04H99.3464V188.172Z" fill="white"/>
<path d="M99.8136 294.793H-33.8174V296.661H99.8136V294.793Z" fill="white"/>
<path d="M9.63605 100.444H7.76709V384.492H9.63605V100.444Z" fill="white"/>
<path d="M56.3601 100.444H54.4912V384.492H56.3601V100.444Z" fill="white"/>
</g>
<defs>
<clipPath id="clip0">
<rect width="813" height="487" fill="white" transform="translate(-345)"/>
</clipPath>
</defs>
</svg>
