<svg width="22" height="24" viewBox="0 0 22 24" fill="none" xmlns="http://www.w3.org/2000/svg">
<g clip-path="url(#clip0_79_527)">
<path d="M7.74929 7.85438H1.42645C1.52682 5.73101 2.22935 4.1132 3.4337 3.00096C4.63805 1.88872 6.34421 1.28204 8.55218 1.28204C9.95726 1.28204 11.1616 1.48427 12.0649 1.98983C13.0685 2.4954 13.771 3.10208 14.2728 4.01209C14.7747 4.92211 15.1761 5.83212 15.1761 6.84325C15.1761 8.15772 14.7747 9.26996 14.0721 10.0789C13.3696 10.8878 12.4663 11.3933 11.262 11.5956V11.6967C14.0721 12.5056 15.4772 14.2245 15.4772 16.7523C15.4772 18.4712 14.875 19.9879 13.6707 20.9991C12.4663 22.1113 10.8605 22.6169 8.75291 22.6169C6.44457 22.6169 4.63805 22.0102 3.33334 20.8979C2.02863 19.9879 1.32609 18.269 1.12537 15.9434H7.4482" stroke="white" stroke-width="1.21765"/>
<path d="M7.24725 7.85438C7.34762 5.73101 8.05015 4.1132 9.2545 3.00096C10.4589 1.88872 12.165 1.28204 14.373 1.28204C15.7781 1.28204 16.9824 1.48427 17.8857 1.98983C18.8893 2.4954 19.5918 3.10208 20.0936 4.01209C20.6958 4.82099 20.8965 5.83212 20.8965 6.84325C20.8965 8.15772 20.4951 9.26996 19.7926 10.0789C19.09 10.8878 18.1868 11.3933 16.9824 11.5956V11.6967C19.7926 12.5056 21.1976 14.2245 21.1976 16.7523C21.1976 18.4712 20.5955 19.9879 19.3911 20.9991C18.1868 22.1113 16.581 22.6169 14.4733 22.6169C12.165 22.6169 10.3585 22.0102 9.05378 20.8979C7.84943 19.9879 7.04653 18.269 6.94617 15.9434" stroke="white" stroke-width="1.21765"/>
<path d="M10.4588 2.09088V21.5046" stroke="white" stroke-width="1.18307"/>
</g>
<defs>
<clipPath id="clip0_79_527">
<rect width="21.1765" height="22.4471" fill="white" transform="translate(0.623535 0.776489)"/>
</clipPath>
</defs>
</svg>
