<svg width="184" height="42" viewBox="0 0 184 42" fill="none" xmlns="http://www.w3.org/2000/svg">
<g clip-path="url(#clip0)">
<path d="M56.0411 28.4481C55.7235 28.734 55.3265 28.9563 54.8501 29.1151C54.3896 29.258 53.9053 29.3295 53.3971 29.3295C52.222 29.3295 51.3168 29.0119 50.6816 28.3767C50.0464 27.7415 49.7288 26.8442 49.7288 25.685V18.1103H47.4897V16.6811H49.7288V13.9418H51.42V16.6811H55.2312V18.1103H51.42V25.5897C51.42 26.3361 51.6027 26.9078 51.9679 27.3048C52.349 27.6859 52.8889 27.8764 53.5877 27.8764C53.937 27.8764 54.2705 27.8209 54.5881 27.7097C54.9216 27.5985 55.2074 27.4397 55.4456 27.2333L56.0411 28.4481Z" fill="white"/>
<path d="M60.9778 19.1345C61.3748 18.2929 61.9624 17.6577 62.7405 17.2289C63.5345 16.8002 64.5111 16.5858 65.6703 16.5858V18.2294L65.2654 18.2055C63.9474 18.2055 62.9152 18.6105 62.1688 19.4204C61.4224 20.2302 61.0493 21.3657 61.0493 22.8266V29.2104H59.358V16.6811H60.9778V19.1345Z" fill="white"/>
<path d="M79.7639 23.4698H69.2832C69.3784 24.7719 69.8787 25.8279 70.7838 26.6378C71.689 27.4318 72.8323 27.8288 74.2139 27.8288C74.992 27.8288 75.7066 27.6938 76.3577 27.4239C77.0088 27.138 77.5725 26.7252 78.0489 26.1852L79.0017 27.2809C78.4459 27.9479 77.7472 28.4561 76.9055 28.8054C76.0798 29.1548 75.1667 29.3295 74.1662 29.3295C72.88 29.3295 71.7366 29.0595 70.7362 28.5196C69.7516 27.9638 68.9814 27.2015 68.4256 26.2329C67.8698 25.2642 67.5919 24.1685 67.5919 22.9457C67.5919 21.723 67.854 20.6272 68.378 19.6586C68.9179 18.6899 69.6484 17.9356 70.5694 17.3957C71.5064 16.8557 72.5544 16.5858 73.7137 16.5858C74.8729 16.5858 75.913 16.8557 76.8341 17.3957C77.7551 17.9356 78.4777 18.6899 79.0017 19.6586C79.5257 20.6114 79.7878 21.7071 79.7878 22.9457L79.7639 23.4698ZM73.7137 18.0388C72.5068 18.0388 71.4905 18.4279 70.6647 19.206C69.8548 19.9682 69.3943 20.9687 69.2832 22.2073H78.168C78.0568 20.9687 77.5884 19.9682 76.7626 19.206C75.9527 18.4279 74.9364 18.0388 73.7137 18.0388ZM76.0718 14.7278L73.7137 12.7508L71.3555 14.7278H69.7834L72.8561 11.7741H74.5712L77.644 14.7278H76.0718Z" fill="white"/>
<path d="M86.8269 29.3295C85.8106 29.3295 84.834 29.1865 83.8971 28.9007C82.976 28.599 82.2535 28.2258 81.7295 27.7812L82.4917 26.4473C83.0157 26.8601 83.6748 27.2015 84.4688 27.4715C85.2628 27.7256 86.0885 27.8526 86.946 27.8526C88.0894 27.8526 88.931 27.6779 89.471 27.3286C90.0267 26.9633 90.3046 26.4552 90.3046 25.8041C90.3046 25.3436 90.1538 24.9863 89.8521 24.7322C89.5504 24.4623 89.1692 24.2638 88.7087 24.1367C88.2482 23.9938 87.6368 23.8588 86.8746 23.7318C85.8583 23.5412 85.0404 23.3507 84.4211 23.1601C83.8018 22.9537 83.2698 22.6122 82.8252 22.1358C82.3964 21.6594 82.182 21.0004 82.182 20.1588C82.182 19.1107 82.6187 18.2532 83.4921 17.5862C84.3655 16.9193 85.5804 16.5858 87.1366 16.5858C87.9465 16.5858 88.7564 16.6969 89.5662 16.9193C90.3761 17.1257 91.0431 17.4036 91.5671 17.753L90.8287 19.1107C89.7965 18.3961 88.5658 18.0388 87.1366 18.0388C86.0568 18.0388 85.2389 18.2294 84.6831 18.6105C84.1432 18.9916 83.8733 19.4918 83.8733 20.1111C83.8733 20.5875 84.0241 20.9687 84.3258 21.2545C84.6434 21.5403 85.0325 21.7547 85.493 21.8976C85.9535 22.0247 86.5887 22.1597 87.3986 22.3026C88.399 22.4931 89.201 22.6837 89.8044 22.8743C90.4079 23.0648 90.924 23.3904 91.3527 23.8509C91.7815 24.3114 91.9959 24.9466 91.9959 25.7565C91.9959 26.8522 91.5353 27.7256 90.6143 28.3767C89.7091 29.0119 88.4467 29.3295 86.8269 29.3295Z" fill="white"/>
<path d="M108.288 16.5858C109.463 16.5858 110.527 16.8557 111.48 17.3957C112.433 17.9197 113.179 18.6661 113.719 19.6347C114.259 20.6034 114.529 21.7071 114.529 22.9457C114.529 24.1844 114.259 25.288 113.719 26.2567C113.179 27.2254 112.433 27.9797 111.48 28.5196C110.527 29.0595 109.463 29.3295 108.288 29.3295C107.24 29.3295 106.295 29.1071 105.454 28.6625C104.628 28.2179 103.961 27.5747 103.453 26.7331V29.2104H101.833V11.5359H103.524V19.0631C104.048 18.2532 104.715 17.6418 105.525 17.2289C106.351 16.8002 107.272 16.5858 108.288 16.5858ZM108.169 27.8288C109.042 27.8288 109.836 27.6303 110.551 27.2333C111.266 26.8204 111.821 26.2408 112.218 25.4945C112.631 24.7481 112.838 23.8985 112.838 22.9457C112.838 21.9929 112.631 21.1433 112.218 20.397C111.821 19.6506 111.266 19.0789 110.551 18.6819C109.836 18.2691 109.042 18.0626 108.169 18.0626C107.28 18.0626 106.478 18.2691 105.763 18.6819C105.065 19.0789 104.509 19.6506 104.096 20.397C103.699 21.1433 103.5 21.9929 103.5 22.9457C103.5 23.8985 103.699 24.7481 104.096 25.4945C104.509 26.2408 105.065 26.8204 105.763 27.2333C106.478 27.6303 107.28 27.8288 108.169 27.8288Z" fill="white"/>
<path d="M119.835 19.1345C120.232 18.2929 120.819 17.6577 121.597 17.2289C122.391 16.8002 123.368 16.5858 124.527 16.5858V18.2294L124.122 18.2055C122.804 18.2055 121.772 18.6105 121.026 19.4204C120.279 20.2302 119.906 21.3657 119.906 22.8266V29.2104H118.215V16.6811H119.835V19.1345Z" fill="white"/>
<path d="M127.827 16.6811H129.519V29.2104H127.827V16.6811ZM128.685 13.9418C128.336 13.9418 128.042 13.8227 127.804 13.5845C127.565 13.3463 127.446 13.0604 127.446 12.7269C127.446 12.4093 127.565 12.1314 127.804 11.8932C128.042 11.655 128.336 11.5359 128.685 11.5359C129.034 11.5359 129.328 11.655 129.566 11.8932C129.804 12.1156 129.924 12.3855 129.924 12.7031C129.924 13.0525 129.804 13.3463 129.566 13.5845C129.328 13.8227 129.034 13.9418 128.685 13.9418Z" fill="white"/>
<path d="M140.846 16.5858C142.418 16.5858 143.665 17.0463 144.586 17.9673C145.523 18.8725 145.991 20.1985 145.991 21.9453V29.2104H144.3V22.112C144.3 20.8099 143.975 19.8174 143.324 19.1345C142.673 18.4517 141.744 18.1103 140.537 18.1103C139.187 18.1103 138.115 18.5152 137.321 19.3251C136.543 20.1191 136.154 21.2227 136.154 22.6361V29.2104H134.463V16.6811H136.082V18.9916C136.543 18.2294 137.178 17.6418 137.988 17.2289C138.814 16.8002 139.766 16.5858 140.846 16.5858Z" fill="white"/>
<path d="M162.301 11.5359V29.2104H160.681V26.7331C160.173 27.5747 159.498 28.2179 158.657 28.6625C157.831 29.1071 156.894 29.3295 155.846 29.3295C154.671 29.3295 153.607 29.0595 152.654 28.5196C151.701 27.9797 150.955 27.2254 150.415 26.2567C149.875 25.288 149.605 24.1844 149.605 22.9457C149.605 21.7071 149.875 20.6034 150.415 19.6347C150.955 18.6661 151.701 17.9197 152.654 17.3957C153.607 16.8557 154.671 16.5858 155.846 16.5858C156.862 16.5858 157.775 16.8002 158.585 17.2289C159.411 17.6418 160.086 18.2532 160.61 19.0631V11.5359H162.301ZM155.989 27.8288C156.862 27.8288 157.648 27.6303 158.347 27.2333C159.062 26.8204 159.618 26.2408 160.015 25.4945C160.427 24.7481 160.634 23.8985 160.634 22.9457C160.634 21.9929 160.427 21.1433 160.015 20.397C159.618 19.6506 159.062 19.0789 158.347 18.6819C157.648 18.2691 156.862 18.0626 155.989 18.0626C155.1 18.0626 154.298 18.2691 153.583 18.6819C152.884 19.0789 152.329 19.6506 151.916 20.397C151.519 21.1433 151.32 21.9929 151.32 22.9457C151.32 23.8985 151.519 24.7481 151.916 25.4945C152.329 26.2408 152.884 26.8204 153.583 27.2333C154.298 27.6303 155.1 27.8288 155.989 27.8288Z" fill="white"/>
<path d="M178.159 23.4698H167.678C167.774 24.7719 168.274 25.8279 169.179 26.6378C170.084 27.4318 171.227 27.8288 172.609 27.8288C173.387 27.8288 174.102 27.6938 174.753 27.4239C175.404 27.138 175.968 26.7252 176.444 26.1852L177.397 27.2809C176.841 27.9479 176.142 28.4561 175.301 28.8054C174.475 29.1548 173.562 29.3295 172.561 29.3295C171.275 29.3295 170.132 29.0595 169.131 28.5196C168.147 27.9638 167.377 27.2015 166.821 26.2329C166.265 25.2642 165.987 24.1685 165.987 22.9457C165.987 21.723 166.249 20.6272 166.773 19.6586C167.313 18.6899 168.043 17.9356 168.965 17.3957C169.901 16.8557 170.95 16.5858 172.109 16.5858C173.268 16.5858 174.308 16.8557 175.229 17.3957C176.15 17.9356 176.873 18.6899 177.397 19.6586C177.921 20.6114 178.183 21.7071 178.183 22.9457L178.159 23.4698ZM172.109 18.0388C170.902 18.0388 169.886 18.4279 169.06 19.206C168.25 19.9682 167.789 20.9687 167.678 22.2073H176.563C176.452 20.9687 175.983 19.9682 175.158 19.206C174.348 18.4279 173.332 18.0388 172.109 18.0388Z" fill="white"/>
<g clip-path="url(#clip1)">
<path fill-rule="evenodd" clip-rule="evenodd" d="M16.9678 5.84556C13.8095 5.84556 11.4611 6.70214 9.83514 8.18842C8.35797 9.53869 7.40634 11.4731 7.14061 14.0602H15.7701V15.549H5.55809L5.59533 14.7691C5.75234 11.4812 6.85982 8.89113 8.83069 7.08957C10.7976 5.29163 13.5391 4.35681 16.9678 4.35681C19.109 4.35681 21.0476 4.65761 22.5538 5.48712C24.1455 6.28312 25.3163 7.27108 26.1511 8.76955C26.9123 10.1358 27.5925 11.6196 27.5925 13.3117C27.5925 15.4073 26.944 17.2315 25.761 18.5798C25.0352 19.4069 24.1799 20.0382 23.1693 20.4758C24.4503 21.0649 25.5001 21.8301 26.2959 22.7796C27.4727 24.1836 28.0417 25.9282 28.0417 27.9415C28.0417 30.6497 27.081 33.1121 25.0919 34.7726C23.1173 36.5706 20.5226 37.3443 17.2672 37.3443C13.7106 37.3443 10.8403 36.4214 8.73042 34.6539C6.53314 33.1185 5.45359 30.3142 5.14819 26.8119L5.07764 26.0028H15.321V27.4916H6.71848C7.09471 30.3982 8.06982 32.3889 9.60611 33.4495L9.63574 33.47L9.66325 33.4932C11.4431 34.995 13.9527 35.8555 17.2672 35.8555C20.2921 35.8555 22.4837 35.1398 24.1004 33.6619L24.1134 33.6501L24.1269 33.6389C25.7215 32.3138 26.5529 30.3028 26.5529 27.9415C26.5529 26.2227 26.0739 24.8324 25.1549 23.7359C24.2287 22.6308 22.8031 21.7623 20.8058 21.1932L20.2654 21.0392V19.6972L20.8877 19.5937C22.5286 19.321 23.7164 18.6526 24.6419 17.5979C25.5547 16.5576 26.1038 15.0976 26.1038 13.3117C26.1038 12.0183 25.5864 10.8149 24.8506 9.4941C24.1909 8.30994 23.2703 7.50793 21.8752 6.81233L21.8608 6.80512L21.8467 6.7973C20.6602 6.13998 19.0114 5.84556 16.9678 5.84556Z" fill="white"/>
<path fill-rule="evenodd" clip-rule="evenodd" d="M25.6498 5.84556C22.4916 5.84556 20.1431 6.70214 18.5172 8.18842C16.8952 9.67108 15.9068 11.8581 15.7644 14.8401L14.2774 14.7691C14.4344 11.4812 15.5419 8.89113 17.5127 7.08957C19.4797 5.29163 22.2211 4.35681 25.6498 4.35681C27.791 4.35681 29.7297 4.65761 31.2358 5.4871C32.8119 6.27531 33.9753 7.25172 34.8085 8.72562C35.8159 10.0898 36.1249 11.7472 36.1249 13.3117C36.1249 15.4073 35.4764 17.2315 34.2933 18.5798C33.5675 19.4069 32.7122 20.0382 31.7017 20.4758C32.9826 21.0649 34.0324 21.8301 34.8282 22.7796C36.005 24.1836 36.574 25.9282 36.574 27.9415C36.574 30.6497 35.6134 33.1121 33.6243 34.7726C31.6497 36.5706 29.055 37.3443 25.7995 37.3443C22.2369 37.3443 19.363 36.4183 17.2521 34.6449C15.2295 33.1215 13.9834 30.3421 13.8281 26.7796L15.3155 26.7148C15.4591 30.009 16.6015 32.2994 18.1614 33.466L18.1789 33.4791L18.1956 33.4932C19.9754 34.995 22.4851 35.8555 25.7995 35.8555C28.8245 35.8555 31.0161 35.1398 32.6327 33.6619L32.6457 33.6501L32.6592 33.6389C34.2538 32.3138 35.0853 30.3028 35.0853 27.9415C35.0853 26.2227 34.6063 24.8324 33.6873 23.7359C32.761 22.6308 31.3355 21.7623 29.3381 21.1932L28.7977 21.0392V19.6972L29.4201 19.5937C31.061 19.321 32.2487 18.6526 33.1743 17.5979C34.087 16.5576 34.6361 15.0976 34.6361 13.3117C34.6361 11.9065 34.3526 10.5959 33.588 9.57925L33.5574 9.53857L33.5326 9.4941C32.8729 8.30994 31.9524 7.50793 30.5573 6.81233L30.5428 6.80512L30.5287 6.7973C29.3422 6.13998 27.6935 5.84556 25.6498 5.84556Z" fill="white"/>
<path fill-rule="evenodd" clip-rule="evenodd" d="M19.0884 34.9578V6.29547H20.5348V34.9578H19.0884Z" fill="white"/>
</g>
</g>
<defs>
<clipPath id="clip0">
<rect width="183" height="42" fill="white" transform="translate(0.0981445)"/>
</clipPath>
<clipPath id="clip1">
<rect width="37.9668" height="39.834" fill="white" transform="translate(0.0981445 -1.86725)"/>
</clipPath>
</defs>
</svg>
