<svg width="85" height="85" viewBox="0 0 85 85" fill="none" xmlns="http://www.w3.org/2000/svg">
<path d="M0 20C0 8.9543 8.95431 0 20 0H65C76.0457 0 85 8.95431 85 20V65C85 76.0457 76.0457 85 65 85H20C8.9543 85 0 76.0457 0 65V20Z" fill="white"/>
<g clip-path="url(#clip0_504_2452)">
<path fill-rule="evenodd" clip-rule="evenodd" d="M36.7204 18.6312C31.7721 18.6312 28.1251 19.9859 25.6104 22.3083C23.3762 24.3716 21.9052 27.3189 21.4521 31.2742H34.8246V34.1492H18.3887L18.4598 32.6438C18.7106 27.3392 20.4815 23.1314 23.6598 20.1962C26.8323 17.2664 31.2422 15.7562 36.7204 15.7562C40.1272 15.7562 43.2476 16.2384 45.6884 17.5949C48.2424 18.8862 50.1368 20.4983 51.4863 22.9455C52.6956 25.1385 53.7977 27.5558 53.7977 30.3243C53.7977 33.7231 52.7562 36.6989 50.8389 38.9066C49.7798 40.126 48.5494 41.0849 47.12 41.7856C48.9664 42.709 50.501 43.8801 51.6893 45.3125C53.5945 47.609 54.5086 50.4559 54.5086 53.7207C54.5086 58.1032 52.9697 62.114 49.7561 64.8267C46.5687 67.7568 42.3901 69.0051 37.1943 69.0051C31.5212 69.0051 26.9147 67.5182 23.5179 64.6474C19.9552 62.1264 18.2377 57.5543 17.7527 51.9344L17.6179 50.3733H34.1137V53.2483H20.7908C21.4073 57.7138 22.9199 60.7254 25.2205 62.33L25.2776 62.3698L25.3307 62.4151C28.0901 64.7674 31.9961 66.1301 37.1943 66.1301C41.9376 66.1301 45.3337 64.9975 47.8304 62.6917L47.8554 62.6687L47.8814 62.6468C50.3372 60.585 51.6336 57.4435 51.6336 53.7207C51.6336 51.0171 50.8889 48.8505 49.4766 47.1481C48.0515 45.4303 45.8458 44.0647 42.7208 43.1652L41.681 42.8659V40.3288L42.8804 40.1274C45.4202 39.7009 47.2444 38.6608 48.6682 37.0214C50.0684 35.4092 50.9227 33.1328 50.9227 30.3243C50.9227 28.3181 50.1291 26.438 48.9687 24.3338C47.9533 22.4924 46.5389 21.2425 44.3675 20.1487L44.3395 20.1346L44.3121 20.1192C42.4916 19.1003 39.9357 18.6312 36.7204 18.6312Z" fill="#2F54EB"/>
<path fill-rule="evenodd" clip-rule="evenodd" d="M50.464 18.6312C45.5157 18.6312 41.8687 19.9859 39.354 22.3083C36.8451 24.6253 35.2985 28.0572 35.0753 32.7796L32.2035 32.6438C32.4542 27.3392 34.2251 23.1314 37.4034 20.1962C40.5759 17.2664 44.9858 15.7562 50.464 15.7562C53.8708 15.7562 56.9912 16.2384 59.432 17.5949C61.9566 18.8712 63.8366 20.4611 65.1829 22.861C66.8126 25.0979 67.3044 27.8005 67.3044 30.3243C67.3044 33.7231 66.2629 36.6989 64.3455 38.9066C63.2864 40.126 62.056 41.0849 60.6267 41.7856C62.4731 42.709 64.0077 43.8801 65.1959 45.3125C67.1012 47.609 68.0153 50.4559 68.0153 53.7207C68.0153 58.1032 66.4764 62.114 63.2628 64.8267C60.0754 67.7568 55.8968 69.0051 50.701 69.0051C45.0164 69.0051 40.4027 67.5122 37.004 64.63C33.726 62.1323 31.7398 57.6081 31.4923 51.8728L34.3646 51.7488C34.5902 56.9756 36.3825 60.5571 38.7714 62.3621L38.8051 62.3876L38.8373 62.4151C41.5968 64.7674 45.5028 66.1301 50.701 66.1301C55.4443 66.1301 58.8404 64.9975 61.3371 62.6917L61.362 62.6687L61.3881 62.6468C63.8439 60.585 65.1403 57.4435 65.1403 53.7207C65.1403 51.0171 64.3956 48.8505 62.9833 47.1481C61.5581 45.4303 59.3525 44.0647 56.2275 43.1652L55.1877 42.8659V40.3288L56.3871 40.1274C58.9269 39.7009 60.7511 38.6608 62.1749 37.0214C63.5751 35.4092 64.4294 33.1328 64.4294 30.3243C64.4294 28.1035 63.9851 26.0657 62.8181 24.498L62.7596 24.4195L62.7123 24.3338C61.6969 22.4924 60.2826 21.2425 58.1112 20.1487L58.0831 20.1346L58.0558 20.1192C56.2353 19.1003 53.6793 18.6312 50.464 18.6312Z" fill="#2F54EB"/>
<path fill-rule="evenodd" clip-rule="evenodd" d="M39.8257 64.9414V19.1036H42.619V64.9414H39.8257Z" fill="#2F54EB"/>
</g>
<defs>
<clipPath id="clip0_504_2452">
<rect width="50" height="53" fill="white" transform="translate(18 16)"/>
</clipPath>
</defs>
</svg>
